PathFileType	4	(X/Y/Z)	D:\telocate\uwb01-Unnamed.trc
DataRate	CameraRate	NumFrames	NumMarkers	Units	OrigDataRate	OrigDataStartFrame	OrigNumFrames
100.00	100.00	      152	0	mm	100.00	5651	      7534
Frame#	Time	
		

5651	56.500	3103.09546	1438.10437	1140.21240	
5652	56.510	3106.02100	1437.58838	1141.01514	
5653	56.520	3108.59570	1437.26270	1141.33606	
5654	56.530	3111.48755	1437.22009	1141.59204	
5655	56.540	3115.01587	1436.38733	1141.58459	
5656	56.550	3117.94214	1435.78003	1142.24548	
5657	56.560	3121.08154	1434.86938	1142.52979	
5658	56.570	3124.04346	1434.25500	1142.47729	
5659	56.580	3127.13477	1433.34656	1142.56067	
5660	56.590	3129.80054	1432.50952	1141.75952	
5661	56.600	3133.29321	1431.39490	1142.52783	
5662	56.610	3135.82031	1430.78979	1142.63379	
5663	56.620	3139.24292	1429.91296	1143.06946	
5664	56.630	3141.61182	1429.46045	1142.85120	
5665	56.640	3144.84326	1428.08569	1142.55701	
5666	56.650	3147.06250	1427.59961	1142.77808	
5667	56.660	3150.15210	1426.66785	1142.60815	
5668	56.670	3152.26416	1425.78076	1142.60144	
5669	56.680	3155.10376	1424.47180	1142.68958	
5670	56.690	3156.78271	1423.28442	1142.07434	
5671	56.700	3159.52148	1421.65515	1141.95850	
5672	56.710	3161.87427	1420.11987	1141.98621	
5673	56.720	3164.90820	1418.92737	1141.90088	
5674	56.730	3167.42114	1417.22485	1141.78430	
5675	56.740	3170.06714	1415.19617	1141.97009	
5676	56.750	3172.14453	1413.90540	1141.05225	
5677	56.760	3174.38013	1411.64465	1141.64001	
5678	56.770	3176.69141	1409.90332	1141.47119	
5679	56.780	3178.72339	1407.94202	1140.68298	
5680	56.790	3180.47388	1406.03894	1140.33984	
5681	56.800	3182.82495	1403.96582	1140.02393	
5682	56.810	3184.77295	1401.05151	1140.15942	
5683	56.820	3187.56494	1398.88074	1140.38196	
5684	56.830	3189.40967	1396.36353	1140.20984	
5685	56.840	3192.00317	1393.45911	1139.74658	
5686	56.850	3193.83667	1391.23206	1139.61841	
5687	56.860	3196.02686	1388.30103	1139.33545	
5688	56.870	3198.54053	1385.73792	1139.32214	
5689	56.880	3200.19287	1382.85876	1138.78149	
5690	56.890	3202.23926	1380.17676	1138.97473	
5691	56.900	3204.30493	1377.50696	1138.88586	
5692	56.910	3206.35889	1374.81372	1139.14026	
5693	56.920	3207.98999	1371.98706	1139.33069	
5694	56.930	3209.99756	1369.21582	1139.24243	
5695	56.940	3212.18433	1367.12512	1140.08777	
5696	56.950	3214.45044	1364.49255	1140.15344	
5697	56.960	3216.84009	1361.80457	1139.79602	
5698	56.970	3218.99536	1359.07776	1140.60449	
5699	56.980	3220.81909	1356.24512	1139.93494	
5700	56.990	3222.94067	1353.29419	1140.43347	
5701	57.000	3225.17822	1350.41394	1140.38428	
5702	57.010	3227.36377	1347.73682	1141.07874	
5703	57.020	3229.26978	1344.08984	1141.15039	
5704	57.030	3230.70728	1341.19458	1140.69556	
5705	57.040	3232.40479	1338.06836	1141.27222	
5706	57.050	3234.40063	1334.69971	1141.59888	
5707	57.060	3235.16528	1331.32019	1141.48108	
5708	57.070	3236.94531	1328.10999	1141.80994	
5709	57.080	3239.14111	1324.50989	1142.59070	
5710	57.090	3240.45386	1321.17297	1142.56421	
5711	57.100	3242.47681	1317.65063	1142.17297	
5712	57.110	3244.96802	1314.31628	1143.39246	
5713	57.120	3246.56860	1310.70178	1142.96997	
5714	57.130	3249.20215	1306.81824	1143.28540	
5715	57.140	3251.72632	1303.34143	1143.16699	
5716	57.150	3253.60352	1299.85474	1143.04553	
5717	57.160	3256.19360	1296.16418	1143.18213	
5718	57.170	3257.98608	1292.96973	1143.59021	
5719	57.180	3261.21313	1289.47839	1143.91138	
5720	57.190	3263.31006	1286.49170	1143.88904	
5721	57.200	3265.11646	1283.17993	1143.32056	
5722	57.210	3267.39063	1280.18164	1143.29138	
5723	57.220	3270.07056	1277.43311	1143.45264	
5724	57.230	3272.23315	1274.43542	1143.50146	
5725	57.240	3275.28076	1271.45898	1143.32361	
5726	57.250	3277.56812	1268.64526	1143.57971	
5727	57.260	3280.17627	1265.88379	1143.54956	
5728	57.270	3283.13794	1262.99817	1143.45850	
5729	57.280	3285.68457	1260.09583	1143.16199	
5730	57.290	3289.18140	1256.95532	1143.12427	
5731	57.300	3292.14355	1254.27405	1143.18811	
5732	57.310	3294.32617	1250.96631	1142.23169	
5733	57.320	3298.03564	1248.30505	1143.43054	
5734	57.330	3300.92163	1245.45972	1143.18335	
5735	57.340	3303.95386	1242.50220	1143.26208	
5736	57.350	3306.87744	1239.81958	1142.84753	
5737	57.360	3309.67627	1236.92102	1142.65820	
5738	57.370	3312.40942	1234.08337	1142.78198	
5739	57.380	3315.82275	1231.75757	1143.24329	
5740	57.390	3319.20972	1228.47302	1142.33289	
5741	57.400	3322.97656	1225.72131	1142.59717	
5742	57.410	3326.11182	1223.23535	1142.15039	
5743	57.420	3329.93970	1220.16394	1142.65259	
5744	57.430	3333.47827	1217.06750	1141.83545	
5745	57.440	3338.17236	1214.06079	1142.49182	
5746	57.450	3341.71631	1210.60974	1141.45618	
5747	57.460	3345.74683	1207.56213	1141.28687	
5748	57.470	3349.94995	1204.18787	1140.66968	
5749	57.480	3354.17114	1200.82385	1140.37891	
5750	57.490	3358.41528	1197.88342	1140.80493	
5751	57.500	3362.28027	1194.70898	1140.44604	
5752	57.510	3366.10815	1191.72583	1139.54626	
5753	57.520	3370.94727	1188.65564	1139.73352	
5754	57.530	3374.89478	1186.01013	1139.43652	
5755	57.540	3379.55713	1182.51318	1139.80713	
5756	57.550	3383.84619	1179.68066	1139.53296	
5757	57.560	3388.75635	1176.46387	1139.34998	
5758	57.570	3393.50586	1173.93579	1139.97168	
5759	57.580	3398.21240	1171.15149	1140.15308	
5760	57.590	3402.22827	1168.60352	1140.12659	
5761	57.600	3406.37256	1166.35559	1139.71216	
5762	57.610	3410.71777	1163.79712	1140.08630	
5763	57.620	3415.63892	1161.62524	1140.82397	
5764	57.630	3419.11499	1159.23950	1140.35803	
5765	57.640	3423.01514	1157.27722	1141.06665	
5766	57.650	3427.07104	1154.35193	1141.33936	
5767	57.660	3430.46899	1152.13196	1142.05774	
5768	57.670	3433.92700	1150.03394	1142.18591	
5769	57.680	3436.86475	1147.89587	1142.27344	
5770	57.690	3439.91016	1145.42798	1143.08264	
5771	57.700	3444.02954	1142.77747	1142.94189	
5772	57.710	3448.95190	1138.13770	1142.06299	
5773	57.720	3455.21753	1133.84277	1143.94653	
5774	57.730	3460.06812	1130.19385	1144.78381	
5775	57.740	3463.67139	1126.55237	1144.42566	
5776	57.750	3466.39307	1123.83850	1145.16406	
5777	57.760	3469.48340	1120.59558	1145.06909	
5778	57.770	3472.00171	1118.04871	1145.61731	
5779	57.780	3474.77856	1115.20581	1145.84924	
5780	57.790	3476.83398	1112.94556	1145.62427	
5781	57.800	3478.08252	1111.17981	1146.25781	
5782	57.810	3479.07080	1109.82141	1146.53210	
5783	57.820	3479.81714	1108.76721	1145.91809	
5784	57.830	3481.14404	1107.95374	1146.27417	
5785	57.840	3481.61963	1107.11377	1145.89771	
5786	57.850	3482.17383	1106.76941	1146.12402	
5787	57.860	3483.17920	1104.84888	1145.38257	
5788	57.870	3485.94312	1101.74866	1145.97278	
5789	57.880	3490.21118	1097.57422	1145.76440	
5790	57.890	3493.43530	1093.99219	1146.02185	
5791	57.900	3495.26880	1090.74158	1146.49219	
5792	57.910	3496.88721	1087.90356	1146.63171	
5793	57.920	3497.21338	1085.16260	1146.19238	
5794	57.930	3499.08765	1082.13562	1147.01904	
5795	57.940	3500.02539	1079.44482	1147.36609	
5796	57.950	3501.35425	1076.80615	1147.40955	
5797	57.960	3502.15259	1074.74316	1147.65747	
5798	57.970	3502.85059	1072.45935	1147.58630	
5799	57.980	3503.49854	1070.73499	1148.01599	
5800	57.990	3504.60522	1068.51086	1148.88977	
5801	58.000	3505.92065	1066.31909	1148.49329	
5802	58.010	3507.26685	1063.88330	1148.84204	
